<svg xmlns="http://www.w3.org/2000/svg" viewBox="0 0 512 512" width="512" height="512">
  <g transform="translate(51, 51) scale(0.8)">
    <!-- Green rounded background -->
    <rect width="512" height="512" rx="112" ry="112" fill="#3cba54"/>

    <!-- Document outline -->
    <g fill="none" stroke="white" stroke-width="22" stroke-linejoin="round" stroke-linecap="round">
      <path d="M 296 132 H 198 Q 168 132 168 162 V 360 Q 168 390 198 390 H 332 Q 348 390 348 360 V 196 Z"/>
      <path d="M 296 132 V 174 Q 296 196 318 196 H 348"/>
    </g>

    <!-- Curly braces (lucide FileJson arc style, scale 11, stroke matches document) -->
    <g fill="none" stroke="white" stroke-width="22" stroke-linecap="round" stroke-linejoin="round">
      <path d="M 236 260 a 11 11 0 0 0 -11 11 v 11 a 11 11 0 0 1 -11 11 11 11 0 0 1 11 11 v 11 a 11 11 0 0 0 11 11"/>
      <path d="M 280 326 a 11 11 0 0 0 11 -11 v -11 a 11 11 0 0 1 11 -11 11 11 0 0 1 -11 -11 v -11 a 11 11 0 0 0 -11 -11"/>
    </g>
  </g>
</svg>
